<?xml version="1.0" encoding="utf-8"?>
<!-- Generator: Adobe Illustrator 24.0.2, SVG Export Plug-In . SVG Version: 6.00 Build 0)  -->
<svg version="1.1" id="Layer_1" xmlns="http://www.w3.org/2000/svg" xmlns:xlink="http://www.w3.org/1999/xlink" x="0px" y="0px"
	 viewBox="0 0 48 48" style="enable-background:new 0 0 48 48;" xml:space="preserve">
<style type="text/css">
	.st0{fill-rule:evenodd;clip-rule:evenodd;fill:#FFFFFF;}
	.st1{filter:url(#Adobe_OpacityMaskFilter);}
	.st2{mask:url(#mask-2_1_);}
	.st3{fill-rule:evenodd;clip-rule:evenodd;fill:#33EF7E;}
	.st4{filter:url(#Adobe_OpacityMaskFilter_1_);}
	.st5{mask:url(#mask-2_2_);}
	.st6{fill-rule:evenodd;clip-rule:evenodd;fill:url(#path-6_3_);}
	.st7{filter:url(#Adobe_OpacityMaskFilter_2_);}
	.st8{mask:url(#mask-7_1_);fill-rule:evenodd;clip-rule:evenodd;fill-opacity:0.1;}
	.st9{filter:url(#filter-9);}
	.st10{fill-rule:evenodd;clip-rule:evenodd;}
	.st11{fill-rule:evenodd;clip-rule:evenodd;fill:#B7B7B7;}
	.st12{fill:none;stroke:#FFFFFF;stroke-width:0.3;stroke-opacity:0.1;}
</style>
<filter  filterUnits="objectBoundingBox" height="178.3%" id="filter-9" width="178.4%" x="-34.3%" y="-34.3%">
	<feOffset  dx="1" dy="1" in="SourceAlpha" result="shadowOffsetOuter1"></feOffset>
	<feGaussianBlur  in="shadowOffsetOuter1" result="shadowBlurOuter1" stdDeviation="2.5"></feGaussianBlur>
	
		<feColorMatrix  in="shadowBlurOuter1" type="matrix" values="0 0 0 0 0   0 0.53 0 0 0  0 0 0 0 0  0 0 0 0.75 0">
		</feColorMatrix>
</filter>
<title>pulse/ic_launcher</title>
<desc>Created with Sketch.</desc>
<g id="ic_launcher">
	<g id="mask">
		<path id="path-1_1_" class="st0" d="M24,2L24,2c12.2,0,22,9.8,22,22l0,0c0,12.2-9.8,22-22,22l0,0C11.8,46,2,36.2,2,24l0,0
			C2,11.8,11.8,2,24,2z"/>
	</g>
	<defs>
		<filter id="Adobe_OpacityMaskFilter" filterUnits="userSpaceOnUse" x="0" y="0" width="48" height="48">
			<feColorMatrix  type="matrix" values="1 0 0 0 0  0 1 0 0 0  0 0 1 0 0  0 0 0 1 0"/>
		</filter>
	</defs>
	<mask maskUnits="userSpaceOnUse" x="0" y="0" width="48" height="48" id="mask-2_1_">
		<g class="st1">
			<path id="path-1_2_" class="st0" d="M24,2L24,2c12.2,0,22,9.8,22,22l0,0c0,12.2-9.8,22-22,22l0,0C11.8,46,2,36.2,2,24l0,0
				C2,11.8,11.8,2,24,2z"/>
		</g>
	</mask>
	<g id="ic_launcher_background" class="st2">
		<g id="dark-background" transform="translate(24.000000, 24.000000) scale(1, -1) translate(-24.000000, -24.000000) ">
			<rect id="path-3_1_" class="st3" width="48" height="48"/>
		</g>
	</g>
	<defs>
		<filter id="Adobe_OpacityMaskFilter_1_" filterUnits="userSpaceOnUse" x="6.9" y="6.7" width="48.5" height="48.4">
			<feColorMatrix  type="matrix" values="1 0 0 0 0  0 1 0 0 0  0 0 1 0 0  0 0 0 1 0"/>
		</filter>
	</defs>
	<mask maskUnits="userSpaceOnUse" x="6.9" y="6.7" width="48.5" height="48.4" id="mask-2_2_">
		<g class="st4">
			<path id="path-1_3_" class="st0" d="M24,2L24,2c12.2,0,22,9.8,22,22l0,0c0,12.2-9.8,22-22,22l0,0C11.8,46,2,36.2,2,24l0,0
				C2,11.8,11.8,2,24,2z"/>
		</g>
	</mask>
	<g id="ic_launcher_foreground" class="st5">
		<g transform="translate(12.500000, 13.500000)">
			<g id="shadow">
				<g id="Mask">
					
						<linearGradient id="path-6_3_" gradientUnits="userSpaceOnUse" x1="-286.8854" y1="398.5866" x2="-286.2962" y2="397.9411" gradientTransform="matrix(42.8421 0 0 -41.6842 12293.1582 16615.3164)">
						<stop  offset="0" style="stop-color:#EEEEEE"/>
						<stop  offset="1" style="stop-color:#D8D8D8;stop-opacity:0"/>
					</linearGradient>
					<rect id="path-6_1_" class="st6" width="42.8" height="41.7"/>
				</g>
				<defs>
					<filter id="Adobe_OpacityMaskFilter_2_" filterUnits="userSpaceOnUse" x="1.2" y="0" width="41.7" height="41.7">
						<feColorMatrix  type="matrix" values="1 0 0 0 0  0 1 0 0 0  0 0 1 0 0  0 0 0 1 0"/>
					</filter>
				</defs>
				<mask maskUnits="userSpaceOnUse" x="1.2" y="0" width="41.7" height="41.7" id="mask-7_1_">
					<g class="st7">
						<rect id="path-6_2_" class="st0" width="42.8" height="41.7"/>
					</g>
				</mask>
				<polygon class="st8" points="1.2,19.9 22.9,41.7 42.8,41.7 42.8,22.7 20.5,0 6,9.3 				"/>
			</g>
			<g id="message-bubble">
				<g class="st9">
					<path id="path-8_2_" class="st10" d="M5,17l-3.6,3.6V15V2.2c0-1.1,0.9-2,2-2h16.4c1.1,0,2,0.9,2,2V15c0,1.1-0.9,2-2,2H5z"/>
				</g>
				<g>
					<path id="path-8_1_" class="st0" d="M5,17l-3.6,3.6V15V2.2c0-1.1,0.9-2,2-2h16.4c1.1,0,2,0.9,2,2V15c0,1.1-0.9,2-2,2H5z"/>
				</g>
			</g>
			<g id="lines" transform="translate(5.532164, 2.017802)">
				<rect id="bottom" x="0" y="8.7" class="st11" width="14.4" height="2.1"/>
				<rect id="middle" x="0" y="5.7" class="st11" width="14.4" height="2.1"/>
				<rect id="top" x="0" y="2.6" class="st11" width="14.4" height="2.1"/>
				<polygon id="line-clip" class="st0" points="0,13.9 15.1,0 15.1,13.5 				"/>
			</g>
		</g>
	</g>
	<path class="st12" d="M24,2.2L24,2.2c12.1,0,21.9,9.8,21.9,21.9v0c0,12.1-9.8,21.9-21.9,21.9h0C11.9,45.9,2.2,36.1,2.2,24v0
		C2.2,11.9,11.9,2.2,24,2.2z"/>
</g>
</svg>
